<?xml version="1.0" standalone="no"?>
<!DOCTYPE svg PUBLIC "-//W3C//DTD SVG 20010904//EN"
 "http://www.w3.org/TR/2001/REC-SVG-20010904/DTD/svg10.dtd">
<svg version="1.0" xmlns="http://www.w3.org/2000/svg"
 width="512.000000pt" height="512.000000pt" viewBox="0 0 512.000000 512.000000"
 preserveAspectRatio="xMidYMid meet">
<metadata>
Created by potrace 1.14, written by Peter Selinger 2001-2017
</metadata>
<g transform="translate(0.000000,512.000000) scale(0.100000,-0.100000)"
fill="#000000" stroke="none">
<path d="M2358 4875 c-2 -2 -37 -6 -78 -9 -41 -4 -100 -11 -130 -16 -30 -5
-68 -12 -84 -14 -112 -19 -316 -70 -376 -93 -8 -4 -18 -7 -22 -7 -3 -1 -10 -4
-14 -8 -4 -5 -15 -8 -23 -8 -19 0 -193 -72 -301 -125 -41 -21 -77 -36 -79 -35
-2 1 -7 -2 -10 -7 -3 -5 -26 -20 -51 -34 -25 -13 -49 -27 -55 -31 -5 -4 -54
-37 -108 -72 -53 -36 -130 -91 -170 -123 -94 -76 -287 -268 -363 -363 -68 -84
-207 -290 -196 -290 4 0 2 -4 -3 -8 -6 -4 -17 -20 -25 -37 -8 -16 -17 -32 -20
-35 -24 -23 -138 -308 -171 -430 -7 -25 -14 -49 -15 -55 -2 -5 -6 -23 -9 -40
-3 -16 -8 -38 -11 -47 -7 -23 -13 -56 -19 -103 -3 -22 -8 -56 -11 -75 -10 -59
-12 -416 -2 -477 4 -32 10 -73 13 -90 4 -28 10 -62 19 -118 1 -5 5 -16 9 -22
5 -7 6 -13 3 -13 -2 0 6 -39 20 -87 14 -49 27 -97 29 -108 3 -11 9 -29 14 -40
5 -11 24 -56 41 -100 51 -126 127 -270 214 -400 44 -66 82 -122 85 -125 3 -3
30 -34 60 -70 222 -265 530 -502 854 -654 99 -47 316 -133 357 -141 8 -2 15
-4 15 -5 0 -1 8 -3 18 -6 9 -2 25 -6 35 -8 9 -3 17 -5 17 -6 0 -1 7 -3 15 -5
8 -1 35 -8 60 -15 25 -7 54 -13 65 -15 11 -2 36 -6 55 -10 19 -4 42 -8 50 -10
8 -1 31 -5 50 -9 130 -24 229 -30 460 -30 181 0 285 5 370 19 14 2 45 7 70 10
24 4 47 8 50 10 3 2 26 6 50 10 25 4 50 8 55 9 6 1 16 5 23 9 6 5 12 6 12 3 0
-2 24 2 53 10 28 8 59 16 67 18 82 20 356 123 416 157 19 10 41 19 48 19 8 0
16 4 18 8 2 4 23 18 48 30 25 12 59 30 75 40 90 52 162 98 179 114 11 10 23
18 27 18 31 0 341 280 456 411 98 113 235 322 301 457 20 42 42 80 47 84 6 4
7 8 3 8 -4 0 5 26 19 58 30 67 83 222 77 222 -3 0 0 9 6 19 9 19 34 126 46
201 3 19 7 37 9 40 9 15 20 194 20 340 0 176 -10 293 -35 400 -6 25 -12 55
-15 67 -8 45 -46 172 -76 253 -35 98 -147 333 -160 338 -5 2 -9 9 -9 15 0 11
-117 194 -136 212 -5 6 -30 37 -55 70 -42 56 -235 257 -309 320 -58 51 -204
161 -230 175 -14 7 -27 16 -30 19 -7 8 -36 26 -85 52 -22 12 -42 25 -45 29 -8
10 -290 147 -335 161 -22 7 -44 16 -50 20 -12 7 -172 61 -180 60 -3 -1 -21 5
-40 13 -19 8 -35 13 -35 11 0 -2 -21 2 -47 10 -41 11 -93 23 -233 50 -14 3
-47 8 -75 11 -27 3 -63 7 -80 10 -33 5 -492 14 -497 9z"/>
</g>
</svg>
