<?xml version="1.0" encoding="utf-8"?>
<!-- Generator: Adobe Illustrator 24.1.1, SVG Export Plug-In . SVG Version: 6.00 Build 0)  -->
<svg version="1.1" id="Layer_1" xmlns="http://www.w3.org/2000/svg" xmlns:xlink="http://www.w3.org/1999/xlink" x="0px" y="0px"
	 viewBox="0 0 512 512" style="enable-background:new 0 0 512 512;" xml:space="preserve">
<g>
	<path d="M256,166.4l114.1,114.1l83.2-83.2L255.9,0l-71.3,71.3l-11.9,11.9l-114,114l83.2,83.2L256,166.4z M208.3,95.1l11.9-11.9
		l35.7-35.7l0,0l0.1-0.1l35.8,35.8l0,0l114.1,114.1L370,233.1L256,119L141.9,233.1l-35.8-35.8L208.3,95.1z"/>
	<path d="M339.1,314.6l-71.3-71.2l-11.9-11.8l-71.3,71.3l-11.8,11.9L58.7,428.8l83.2,83.2L256,397.9L370.1,512l83.2-83.2
		L339.1,314.6L339.1,314.6z M405.9,428.8l-35.8,35.8L256,350.5L141.9,464.6l-35.8-35.8l149.9-150l35.9,35.9l0,0L405.9,428.8z"/>
</g>
</svg>
