<svg id="Layer_1" data-name="Layer 1" xmlns="http://www.w3.org/2000/svg" viewBox="0 0 103.49 23.02"><defs><style>.cls-1{font-size:16px;font-family:BookmanOldStyle-BoldItalic, Bookman Old Style;font-weight:700;font-style:italic;}.cls-1,.cls-4{fill:#fff;}.cls-2{fill:#ffce54;}.cls-3{opacity:0.5;}.cls-5{opacity:0.2;}.cls-6{fill:#656d78;}.cls-7{opacity:0.3;}.cls-8{fill:#ed5565;}.cls-9{fill:#e6e9ed;}.cls-10{fill:#ccd1d9;}.cls-11{opacity:0.7;}.cls-12{fill:#3a3847;}</style></defs><title>thorworks_logo</title><text class="cls-1" transform="translate(21.37 17)">Thorworx</text><g id="_25._hammer_weapon_viking_culture_country_civilization" data-name="25. hammer, weapon, viking, culture, country, civilization"><path class="cls-2" d="M10.31,36.29c-.31.15-.65,0-.79.09a.88.88,0,0,0,1.24,1.24c.14-.14-.06-.48.09-.8l.17-.17-.53-.53Z" transform="translate(-9.14 -22)"/><g class="cls-3"><path class="cls-4" d="M10.31,36.29c-.31.15-.65,0-.79.09a.88.88,0,0,0,0,1.24l.1.08a.8.8,0,0,1,0-1.09c.15-.14.54,0,.85-.14Z" transform="translate(-9.14 -22)"/></g><g class="cls-5"><path d="M10.84,36.82c-.14.32.06.65-.08.8a.88.88,0,0,1-1.24,0,.39.39,0,0,1-.08-.1.8.8,0,0,0,1.09,0c.14-.15,0-.54.14-.85Z" transform="translate(-9.14 -22)"/></g><path class="cls-6" d="M21.11,25.14h0l-.17.17.88.89L22,26h0a.63.63,0,1,0-.89-.88Z" transform="translate(-9.14 -22)"/><g class="cls-7"><path class="cls-4" d="M21.29,25.32a.62.62,0,0,1,.79-.09L22,25.14a.62.62,0,0,0-.89,0h0l.18.18Z" transform="translate(-9.14 -22)"/></g><g class="cls-5"><path d="M21.82,25.85a.62.62,0,0,0,.08-.79.39.39,0,0,1,.1.08A.63.63,0,0,1,22,26h0l-.18-.17Z" transform="translate(-9.14 -22)"/></g><polygon class="cls-8" points="2.41 14.47 7.91 8.97 7.03 8.09 1.53 13.59 2.41 14.47"/><polygon class="cls-9" points="10.56 1.02 5.97 5.61 5.08 4.02 8.97 0.13 10.56 1.02"/><polygon class="cls-9" points="10.56 1.02 5.97 5.61 5.08 4.02 8.97 0.13 10.56 1.02"/><path class="cls-6" d="M20.05,30.09a.25.25,0,0,1,.36,0,.25.25,0,0,1,0,.35.24.24,0,0,1-.35,0A.25.25,0,0,1,20.05,30.09Z" transform="translate(-9.14 -22)"/><path class="cls-6" d="M21.12,29a.25.25,0,1,1,0,.35A.24.24,0,0,1,21.12,29Z" transform="translate(-9.14 -22)"/><path class="cls-6" d="M22.18,28a.25.25,0,1,1,0,.35A.24.24,0,0,1,22.18,28Z" transform="translate(-9.14 -22)"/><polygon class="cls-9" points="15.88 7.03 11.98 10.92 10.39 10.03 14.98 5.44 15.88 7.03"/><path class="cls-6" d="M17.05,26.73a.25.25,0,1,1-.35.35.25.25,0,0,1,0-.35A.25.25,0,0,1,17.05,26.73Z" transform="translate(-9.14 -22)"/><path class="cls-6" d="M18.82,24.61a.25.25,0,1,1,0,.35A.24.24,0,0,1,18.82,24.61Z" transform="translate(-9.14 -22)"/><path class="cls-6" d="M17.76,25.67a.25.25,0,1,1,0,.35A.24.24,0,0,1,17.76,25.67Z" transform="translate(-9.14 -22)"/><polygon class="cls-2" points="11.1 5.08 10.88 5.93 10.24 5.3 11.1 5.08"/><polygon class="cls-2" points="10.24 5.3 10.88 5.93 10.74 6.5 9.68 5.44 10.24 5.3"/><path class="cls-2" d="M18.64,28.67a1.49,1.49,0,0,1,0-2.12,1.51,1.51,0,0,1,2.12,0,1.5,1.5,0,0,1-2.12,2.12Zm.18-1.23,1.06,1.06.14-.57.21-.85-.85.22Z" transform="translate(-9.14 -22)"/><g class="cls-3"><path class="cls-4" d="M18.82,26.73a1.51,1.51,0,0,1,2-.09l-.09-.09a1.51,1.51,0,0,0-2.12,0,1.49,1.49,0,0,0,0,2.12l.1.09A1.49,1.49,0,0,1,18.82,26.73Z" transform="translate(-9.14 -22)"/></g><g class="cls-5"><path d="M20.59,28.5a1.51,1.51,0,0,1-2,.08l.08.1a1.5,1.5,0,1,0,2.12-2.13l-.09-.08A1.5,1.5,0,0,1,20.59,28.5Z" transform="translate(-9.14 -22)"/></g><path class="cls-10" d="M18.11,26a.25.25,0,1,0-.35,0A.24.24,0,0,0,18.11,26Zm3.36,3a.25.25,0,1,0,0,.35A.24.24,0,0,0,21.47,29ZM19.17,25a.25.25,0,1,0-.35,0A.24.24,0,0,0,19.17,25Zm3.36,3.36a.25.25,0,1,0-.35,0A.24.24,0,0,0,22.53,28.32ZM16.7,27.08a.25.25,0,1,0,.35-.35.25.25,0,0,0-.36,0A.25.25,0,0,0,16.7,27.08Zm3.71,3.36a.25.25,0,0,0,0-.35.25.25,0,0,0-.36,0,.25.25,0,0,0,0,.35A.24.24,0,0,0,20.41,30.44Zm-1.77-3.89a1.5,1.5,0,1,0,2.12,0A1.51,1.51,0,0,0,18.64,26.55Zm5.48.89L19.52,32l-.35-1.41-.71-.71-.17.18a.25.25,0,0,1-.36,0l-.35.35-.18.18-.88-.88.17-.18.36-.35a.25.25,0,0,1,0-.36l.18-.18h0l-.71-.7-1.42-.36L19.7,23h0l.35,1.41,2.65,2.65,1.41.35Z" transform="translate(-9.14 -22)"/><polygon class="cls-6" points="7.38 7.74 8.27 8.62 8.44 8.8 7.91 8.97 7.03 8.09 7.2 7.56 7.38 7.74"/><polygon class="cls-6" points="2.24 15 1 13.76 1.53 13.59 2.42 14.47 2.24 15"/><g class="cls-7"><polygon class="cls-4" points="1 13.76 1.18 13.94 1.71 13.76 1.53 13.59 1 13.76"/></g><g class="cls-5"><polygon points="2.24 15 2.06 14.82 2.24 14.29 2.42 14.47 2.24 15"/></g><g class="cls-7"><polygon class="cls-4" points="7.2 7.56 7.38 7.74 7.2 8.27 7.03 8.09 7.2 7.56"/></g><g class="cls-5"><polygon points="8.44 8.8 8.27 8.62 7.73 8.8 7.91 8.97 8.44 8.8"/></g><path class="cls-6" d="M17.58,22.31a.24.24,0,0,0-.35,0h0L14.4,25.14h0a.24.24,0,0,0,0,.35h0l.18.18,3.18-3.18-.18-.17Z" transform="translate(-9.14 -22)"/><path class="cls-6" d="M21.64,32.74a.25.25,0,0,0,.36,0h0l2.83-2.83h0a.26.26,0,0,0,0-.35h0l-.18-.18-3.18,3.18.17.18Z" transform="translate(-9.14 -22)"/><g class="cls-5"><rect x="20.9" y="30.93" width="4.5" height="0.25" transform="translate(-24.32 3.46) rotate(-45)"/></g><g class="cls-5"><polygon points="8.44 0.31 5.26 3.49 5.44 3.67 8.62 0.49 8.44 0.31"/></g><g class="cls-5"><polygon points="12.86 4.02 12.69 4.2 11.8 3.31 11.98 3.14 12.86 4.02"/></g><g class="cls-7"><polygon class="cls-4" points="7.03 8.44 1.88 13.59 1.71 13.41 6.85 8.26 7.03 8.44"/></g><g class="cls-5"><polygon points="7.74 9.15 2.59 14.29 2.41 14.12 7.56 8.97 7.74 9.15"/></g><g class="cls-5"><rect x="10.54" y="36.1" width="0.25" height="0.75" transform="translate(-31.8 -3.78) rotate(-45)"/></g><g class="cls-5"><rect x="16.92" y="29.46" width="0.25" height="1.25" transform="translate(-25.42 -1.14) rotate(-44.99)"/></g><polygon class="cls-4" points="5.21 4.25 9.21 0.26 8.98 0.13 5.08 4.03 5.21 4.25"/><g class="cls-11"><polygon class="cls-4" points="10.64 1.29 10.57 1.02 10.56 1.02 5.97 5.61 6.25 5.68 10.64 1.29"/></g><g class="cls-5"><polygon points="15.75 6.8 11.75 10.8 11.98 10.92 15.87 7.03 15.75 6.8"/></g><g class="cls-5"><polygon points="10.32 9.76 10.39 10.04 10.39 10.04 14.99 5.44 14.71 5.37 10.32 9.76"/></g><g class="cls-5"><rect x="11.07" y="35.31" width="0.25" height="1.25" transform="translate(-31.27 -3.55) rotate(-45.01)"/></g><g class="cls-5"><rect x="16.4" y="29.99" width="0.25" height="1.25" transform="translate(-25.95 -1.35) rotate(-45)"/></g><path class="cls-12" d="M11.73,36.42a.11.11,0,0,1-.09,0,.11.11,0,0,1,0-.17l.53-.54a.15.15,0,0,1,.18,0,.13.13,0,0,1,0,.18l-.53.53A.12.12,0,0,1,11.73,36.42Z" transform="translate(-9.14 -22)"/><path class="cls-12" d="M10.84,35.53a.11.11,0,0,1-.08,0,.13.13,0,0,1,0-.18l.35-.35a.13.13,0,0,1,.18,0,.14.14,0,0,1,0,.17l-.36.36A.12.12,0,0,1,10.84,35.53Z" transform="translate(-9.14 -22)"/><path class="cls-12" d="M17.05,31.1a.11.11,0,0,1-.09,0l-.88-.88a.13.13,0,0,1,0-.18.12.12,0,0,1,.17,0l.89.88a.13.13,0,0,1,0,.18A.12.12,0,0,1,17.05,31.1Z" transform="translate(-9.14 -22)"/><path class="cls-12" d="M16.16,30.21h0a.12.12,0,0,1-.07-.16l.17-.53a.13.13,0,0,1,.16-.08.12.12,0,0,1,.08.16l-.18.53A.11.11,0,0,1,16.16,30.21Z" transform="translate(-9.14 -22)"/><path class="cls-12" d="M17.05,31.1a.14.14,0,0,1-.12-.09.13.13,0,0,1,.08-.16l.53-.17a.12.12,0,0,1,.16.08.12.12,0,0,1-.08.15l-.53.18Z" transform="translate(-9.14 -22)"/><path class="cls-12" d="M17.58,30.92a.11.11,0,0,1-.09,0l-1.24-1.23a.13.13,0,0,1,.18-.18l1.24,1.24a.11.11,0,0,1,0,.17A.12.12,0,0,1,17.58,30.92Z" transform="translate(-9.14 -22)"/><path class="cls-12" d="M11.55,36.59l-.09,0-.88-.89a.11.11,0,0,1,0-.17.13.13,0,0,1,.18,0l.88.88a.13.13,0,0,1,0,.18A.14.14,0,0,1,11.55,36.59Z" transform="translate(-9.14 -22)"/><path class="cls-12" d="M11.38,37.12h0a.13.13,0,0,1-.08-.16l.17-.53a.13.13,0,0,1,.16-.08.12.12,0,0,1,.08.16l-.18.53A.11.11,0,0,1,11.38,37.12Z" transform="translate(-9.14 -22)"/><path class="cls-12" d="M10.14,35.89A.12.12,0,0,1,10,35.8a.13.13,0,0,1,.08-.16l.53-.17a.12.12,0,0,1,.16.07.13.13,0,0,1-.08.16l-.53.18Z" transform="translate(-9.14 -22)"/><path class="cls-12" d="M11.38,37.12a.12.12,0,0,1-.09,0l-1.24-1.24a.11.11,0,0,1,0-.17.12.12,0,0,1,.17,0l1.24,1.24a.13.13,0,0,1,0,.18A.11.11,0,0,1,11.38,37.12Z" transform="translate(-9.14 -22)"/><path class="cls-12" d="M16.69,29.68a.11.11,0,0,1-.08,0,.13.13,0,0,1,0-.18l.35-.35a.13.13,0,0,1,.18,0,.12.12,0,0,1,0,.17l-.36.36A.12.12,0,0,1,16.69,29.68Z" transform="translate(-9.14 -22)"/><path class="cls-12" d="M17.58,30.57a.15.15,0,0,1-.09,0,.13.13,0,0,1,0-.18l.35-.35a.13.13,0,0,1,.18.18l-.35.35A.18.18,0,0,1,17.58,30.57Z" transform="translate(-9.14 -22)"/><path class="cls-12" d="M17.05,29.33a.11.11,0,0,1-.09,0,.37.37,0,0,1,0-.53.13.13,0,0,1,.18.18.13.13,0,0,0,0,.18.12.12,0,0,1,0,.17A.12.12,0,0,1,17.05,29.33Z" transform="translate(-9.14 -22)"/><path class="cls-12" d="M18.11,30.29a.4.4,0,0,1-.27-.11.15.15,0,0,1,0-.18A.13.13,0,0,1,18,30a.13.13,0,0,0,.18,0,.11.11,0,0,1,.17,0,.13.13,0,0,1,0,.18A.36.36,0,0,1,18.11,30.29Z" transform="translate(-9.14 -22)"/><path class="cls-12" d="M17.23,29.51a.13.13,0,0,1-.09,0L17,29.29a.12.12,0,0,1,0-.17.13.13,0,0,1,.18,0l.17.17a.13.13,0,0,1,0,.18A.12.12,0,0,1,17.23,29.51Z" transform="translate(-9.14 -22)"/><path class="cls-12" d="M17.93,30.21a.16.16,0,0,1-.09,0L17.67,30a.13.13,0,0,1,0-.18.11.11,0,0,1,.17,0L18,30a.13.13,0,0,1,0,.18A.14.14,0,0,1,17.93,30.21Z" transform="translate(-9.14 -22)"/><path class="cls-12" d="M18.29,30.21a.12.12,0,0,1-.09,0,.13.13,0,0,1,0-.18l.17-.18a.13.13,0,0,1,.18.18l-.18.18A.11.11,0,0,1,18.29,30.21Z" transform="translate(-9.14 -22)"/><path class="cls-12" d="M17.05,29a.15.15,0,0,1-.09,0,.13.13,0,0,1,0-.18l.18-.17a.12.12,0,1,1,.17.17l-.17.18A.18.18,0,0,1,17.05,29Z" transform="translate(-9.14 -22)"/><path class="cls-12" d="M15.1,27.74a.09.09,0,0,1-.08,0,.11.11,0,0,1,0-.17l4.59-4.6a.13.13,0,0,1,.18.18l-4.6,4.59A.1.1,0,0,1,15.1,27.74Z" transform="translate(-9.14 -22)"/><path class="cls-12" d="M16.52,28.09h0l-1.42-.35a.15.15,0,0,1-.09-.16.14.14,0,0,1,.15-.09l1.42.35a.13.13,0,0,1,.09.16A.12.12,0,0,1,16.52,28.09Z" transform="translate(-9.14 -22)"/><path class="cls-12" d="M20.06,24.56a.14.14,0,0,1-.13-.1l-.35-1.41v0a.13.13,0,0,1,.13-.13.13.13,0,0,1,.12.11l.35,1.4a.13.13,0,0,1-.09.15Z" transform="translate(-9.14 -22)"/><path class="cls-12" d="M15.1,27.74a.13.13,0,0,1-.11-.07l-.88-1.59a.13.13,0,0,1,.05-.17.13.13,0,0,1,.17.05l.88,1.59a.11.11,0,0,1-.05.17Z" transform="translate(-9.14 -22)"/><path class="cls-12" d="M14.22,26.15a.12.12,0,0,1-.09,0,.13.13,0,0,1,0-.18L18,22a.13.13,0,0,1,.18,0,.12.12,0,0,1,0,.17l-3.89,3.9A.12.12,0,0,1,14.22,26.15Z" transform="translate(-9.14 -22)"/><path class="cls-12" d="M19.7,23.14h-.06l-1.59-.9a.13.13,0,0,1-.05-.17.12.12,0,0,1,.17,0l1.59.89a.13.13,0,0,1,0,.17A.13.13,0,0,1,19.7,23.14Z" transform="translate(-9.14 -22)"/><path class="cls-12" d="M17.4,29a.11.11,0,0,1-.08,0l-.89-.89a.11.11,0,0,1,0-.17.13.13,0,0,1,.18,0l.88.88a.13.13,0,0,1,0,.18A.12.12,0,0,1,17.4,29Z" transform="translate(-9.14 -22)"/><path class="cls-12" d="M14.4,25.62a.13.13,0,0,1-.09,0,.38.38,0,0,1,0-.53.13.13,0,0,1,.18,0,.15.15,0,0,1,0,.18.13.13,0,0,0,0,.18.12.12,0,0,1,0,.17A.09.09,0,0,1,14.4,25.62Z" transform="translate(-9.14 -22)"/><path class="cls-12" d="M17.58,22.44a.15.15,0,0,1-.09,0,.13.13,0,0,0-.09,0h0a.18.18,0,0,0-.09,0,.12.12,0,0,1-.17,0,.13.13,0,0,1,0-.18.39.39,0,0,1,.53,0,.13.13,0,0,1,0,.18A.18.18,0,0,1,17.58,22.44Z" transform="translate(-9.14 -22)"/><path class="cls-12" d="M14.4,25.26a.12.12,0,0,1-.09,0,.13.13,0,0,1,0-.18l2.83-2.83a.12.12,0,0,1,.17,0,.13.13,0,0,1,0,.18l-2.82,2.83A.16.16,0,0,1,14.4,25.26Z" transform="translate(-9.14 -22)"/><path class="cls-12" d="M19.52,32.16a.09.09,0,0,1-.08,0,.13.13,0,0,1,0-.18L24,27.35a.13.13,0,0,1,.18.18l-4.6,4.59A.1.1,0,0,1,19.52,32.16Z" transform="translate(-9.14 -22)"/><path class="cls-12" d="M19.52,32.16a.14.14,0,0,1-.12-.1l-.35-1.41a.12.12,0,0,1,.24-.06L19.64,32a.11.11,0,0,1-.09.15Z" transform="translate(-9.14 -22)"/><path class="cls-12" d="M24.13,27.56h0l-1.43-.36a.12.12,0,0,1,.06-.24l1.41.35a.12.12,0,0,1,.11.13A.14.14,0,0,1,24.13,27.56Z" transform="translate(-9.14 -22)"/><path class="cls-12" d="M21.11,33h-.06l-1.59-.89a.13.13,0,0,1-.05-.17.13.13,0,0,1,.17,0l1.6.89a.12.12,0,0,1,0,.17A.11.11,0,0,1,21.11,33Z" transform="translate(-9.14 -22)"/><path class="cls-12" d="M21.11,33A.11.11,0,0,1,21,33a.13.13,0,0,1,0-.18l3.89-3.89a.13.13,0,0,1,.18,0,.11.11,0,0,1,0,.17L21.2,33A.12.12,0,0,1,21.11,33Z" transform="translate(-9.14 -22)"/><path class="cls-12" d="M25,29.15a.14.14,0,0,1-.11-.06L24,27.5a.13.13,0,0,1,0-.17.12.12,0,0,1,.17.05L25.12,29a.13.13,0,0,1-.05.17Z" transform="translate(-9.14 -22)"/><path class="cls-12" d="M19.17,30.74a.16.16,0,0,1-.09,0l-.88-.89a.12.12,0,0,1,.17-.17l.89.88a.13.13,0,0,1,0,.18A.14.14,0,0,1,19.17,30.74Z" transform="translate(-9.14 -22)"/><path class="cls-12" d="M21.82,32.94h0a.34.34,0,0,1-.26-.12.11.11,0,0,1,0-.17.13.13,0,0,1,.18,0,.12.12,0,0,0,.08,0,.1.1,0,0,0,.09,0,.13.13,0,1,1,.18.18A.39.39,0,0,1,21.82,32.94Z" transform="translate(-9.14 -22)"/><path class="cls-12" d="M24.83,30a.15.15,0,0,1-.09,0,.13.13,0,0,1,0-.18.12.12,0,0,0,0-.08.13.13,0,0,0,0-.09.13.13,0,0,1,0-.18.11.11,0,0,1,.17,0,.38.38,0,0,1,0,.53A.18.18,0,0,1,24.83,30Z" transform="translate(-9.14 -22)"/><path class="cls-12" d="M22,32.87a.15.15,0,0,1-.09,0,.13.13,0,0,1,0-.18l2.83-2.83a.13.13,0,0,1,.18.18l-2.83,2.83A.18.18,0,0,1,22,32.87Z" transform="translate(-9.14 -22)"/><path class="cls-12" d="M22,26.15a.11.11,0,0,1-.09,0,.13.13,0,0,1,0-.18.48.48,0,0,0,0-.7.5.5,0,0,0-.71,0,.11.11,0,0,1-.17,0,.13.13,0,0,1,0-.18.75.75,0,1,1,1.06,1.06A.12.12,0,0,1,22,26.15Z" transform="translate(-9.14 -22)"/><path class="cls-12" d="M22.71,27.21a.15.15,0,0,1-.09,0L20,24.52a.13.13,0,0,1,0-.18.11.11,0,0,1,.17,0L22.8,27a.15.15,0,0,1,0,.18A.18.18,0,0,1,22.71,27.21Z" transform="translate(-9.14 -22)"/><path class="cls-12" d="M19.7,29.24a1.63,1.63,0,0,1,0-3.25,1.65,1.65,0,0,1,1.15.47,1.63,1.63,0,0,1-1.15,2.78Zm0-3a1.37,1.37,0,1,0,1,.4A1.35,1.35,0,0,0,19.7,26.24Z" transform="translate(-9.14 -22)"/><path class="cls-12" d="M15.1,26.68h0a.12.12,0,0,1-.07-.16l.17-.53a.14.14,0,0,1,.16-.08.13.13,0,0,1,.08.16l-.18.53A.11.11,0,0,1,15.1,26.68Z" transform="translate(-9.14 -22)"/><path class="cls-12" d="M15.28,26.15a.14.14,0,0,1-.12-.09.14.14,0,0,1,.08-.16l.53-.17a.12.12,0,0,1,.16.08.12.12,0,0,1-.08.15l-.53.18Z" transform="translate(-9.14 -22)"/><path class="cls-12" d="M15.81,26h0a.12.12,0,0,1-.08-.15l.18-.53A.12.12,0,0,1,16,25.2a.13.13,0,0,1,.08.16l-.18.53A.13.13,0,0,1,15.81,26Z" transform="translate(-9.14 -22)"/><path class="cls-12" d="M16,25.44a.13.13,0,0,1-.12-.08A.12.12,0,0,1,16,25.2l.53-.18a.13.13,0,0,1,.08.24l-.53.17Z" transform="translate(-9.14 -22)"/><path class="cls-12" d="M16.52,25.26a.14.14,0,0,1-.09,0,.12.12,0,0,1,0-.15l.17-.51a.12.12,0,0,1,.16-.08.13.13,0,0,1,.08.16l-.18.53,0,.05A.16.16,0,0,1,16.52,25.26Z" transform="translate(-9.14 -22)"/><path class="cls-12" d="M16.7,24.73a.12.12,0,0,1-.12-.08.12.12,0,0,1,.08-.16l.53-.18a.14.14,0,0,1,.16.08.13.13,0,0,1-.08.16l-.53.18Z" transform="translate(-9.14 -22)"/><path class="cls-12" d="M17.23,24.56h0a.12.12,0,0,1-.08-.16l.18-.53a.12.12,0,0,1,.15-.08.12.12,0,0,1,.08.16l-.17.53A.14.14,0,0,1,17.23,24.56Z" transform="translate(-9.14 -22)"/><path class="cls-12" d="M17.4,24a.11.11,0,0,1-.11-.08.12.12,0,0,1,.07-.16l.53-.18a.13.13,0,0,1,.16.08.12.12,0,0,1-.08.16l-.53.18Z" transform="translate(-9.14 -22)"/><path class="cls-12" d="M17.93,23.85h0a.12.12,0,0,1-.07-.16l.17-.53a.14.14,0,0,1,.16-.08.13.13,0,0,1,.08.16l-.18.53A.12.12,0,0,1,17.93,23.85Z" transform="translate(-9.14 -22)"/><path class="cls-12" d="M18.11,23.32a.13.13,0,0,1,0-.25l.53-.17a.12.12,0,0,1,.16.08.12.12,0,0,1-.08.15l-.53.18Z" transform="translate(-9.14 -22)"/><path class="cls-12" d="M24,29.15h0a.13.13,0,0,1-.08-.16l.17-.53a.13.13,0,0,1,.16-.08.12.12,0,0,1,.08.16l-.18.53A.11.11,0,0,1,24,29.15Z" transform="translate(-9.14 -22)"/><path class="cls-12" d="M23.42,29.33a.11.11,0,0,1-.12-.09.12.12,0,0,1,.08-.15l.53-.18a.12.12,0,0,1,.15.08.13.13,0,0,1-.07.16l-.53.17Z" transform="translate(-9.14 -22)"/><path class="cls-12" d="M23.24,29.86h0a.12.12,0,0,1-.08-.15l.18-.53a.12.12,0,0,1,.16-.08.11.11,0,0,1,.07.15l-.17.53A.13.13,0,0,1,23.24,29.86Z" transform="translate(-9.14 -22)"/><path class="cls-12" d="M22.71,30a.14.14,0,0,1-.12-.09.13.13,0,0,1,.08-.16l.53-.17a.12.12,0,0,1,.16.08.12.12,0,0,1-.08.15l-.53.18Z" transform="translate(-9.14 -22)"/><path class="cls-12" d="M22.53,30.57h0a.13.13,0,0,1-.08-.16l.18-.53a.05.05,0,0,1,0,0,.12.12,0,0,1,.2.14l-.17.51A.14.14,0,0,1,22.53,30.57Z" transform="translate(-9.14 -22)"/><path class="cls-12" d="M22,30.74a.12.12,0,0,1,0-.24l.53-.18a.13.13,0,0,1,.16.08.12.12,0,0,1-.08.16l-.53.18Z" transform="translate(-9.14 -22)"/><path class="cls-12" d="M21.82,31.27h0a.12.12,0,0,1-.08-.16l.17-.53A.13.13,0,0,1,22,30.5a.12.12,0,0,1,.08.16l-.18.53A.11.11,0,0,1,21.82,31.27Z" transform="translate(-9.14 -22)"/><path class="cls-12" d="M21.29,31.45a.11.11,0,0,1-.11-.08.12.12,0,0,1,.08-.16l.53-.18a.13.13,0,0,1,.07.24l-.53.17Z" transform="translate(-9.14 -22)"/><path class="cls-12" d="M21.12,32h0a.13.13,0,0,1-.08-.16l.18-.53a.11.11,0,0,1,.15-.08.12.12,0,0,1,.08.16l-.18.53A.11.11,0,0,1,21.12,32Z" transform="translate(-9.14 -22)"/><path class="cls-12" d="M20.59,32.16a.11.11,0,0,1-.12-.09.12.12,0,0,1,.08-.15l.53-.18a.12.12,0,0,1,.15.08.13.13,0,0,1-.07.16l-.53.17Z" transform="translate(-9.14 -22)"/><path class="cls-12" d="M18.82,27.56a.14.14,0,0,1-.13-.09.13.13,0,0,1,.1-.15L20.2,27a.12.12,0,0,1,.06.24l-1.41.36Z" transform="translate(-9.14 -22)"/><path class="cls-12" d="M19.88,28.62h0a.12.12,0,0,1-.09-.15l.35-1.42a.12.12,0,0,1,.24.06L20,28.53A.13.13,0,0,1,19.88,28.62Z" transform="translate(-9.14 -22)"/><path class="cls-12" d="M19.88,28.62a.11.11,0,0,1-.09,0l-1.06-1a.13.13,0,0,1,0-.18.11.11,0,0,1,.17,0L20,28.41a.11.11,0,0,1,0,.17A.12.12,0,0,1,19.88,28.62Z" transform="translate(-9.14 -22)"/><path class="cls-12" d="M20.23,28.27a.12.12,0,0,1-.09,0l-1.06-1.06a.11.11,0,0,1,0-.17.13.13,0,0,1,.18,0l1.06,1.06a.11.11,0,0,1,0,.17A.12.12,0,0,1,20.23,28.27Z" transform="translate(-9.14 -22)"/><path class="cls-12" d="M16.87,27.28a.38.38,0,0,1-.37-.37.38.38,0,0,1,.64-.27.36.36,0,0,1,.11.26.38.38,0,0,1-.38.38Zm0-.5a.12.12,0,0,0-.12.13.11.11,0,0,0,0,.08A.14.14,0,0,0,17,27a.18.18,0,0,0,0-.1.12.12,0,0,0,0-.08A.11.11,0,0,0,16.87,26.78Z" transform="translate(-9.14 -22)"/><path class="cls-12" d="M17.93,26.22a.38.38,0,0,1-.37-.37.38.38,0,0,1,.64-.27.38.38,0,0,1,0,.53A.39.39,0,0,1,17.93,26.22Zm0-.5a.09.09,0,0,0-.08,0,.1.1,0,0,0,0,.09.11.11,0,0,0,0,.08.13.13,0,0,0,.18,0,.11.11,0,0,0,0-.17A.1.1,0,0,0,17.93,25.72Z" transform="translate(-9.14 -22)"/><path class="cls-12" d="M19,25.16a.36.36,0,0,1-.26-.11.37.37,0,0,1,0-.53.39.39,0,0,1,.53,0,.36.36,0,0,1,.11.26.39.39,0,0,1-.11.27A.37.37,0,0,1,19,25.16Zm0-.5a.09.09,0,0,0-.08,0,.12.12,0,1,0,.17,0A.1.1,0,0,0,19,24.66Z" transform="translate(-9.14 -22)"/><path class="cls-12" d="M20.23,30.64a.38.38,0,0,1-.37-.37A.32.32,0,0,1,20,30a.37.37,0,1,1,.26.64Zm0-.5a.12.12,0,0,0-.12.13.11.11,0,0,0,0,.08.13.13,0,0,0,.18-.18A.12.12,0,0,0,20.23,30.14Z" transform="translate(-9.14 -22)"/><path class="cls-12" d="M21.29,29.58a.38.38,0,0,1-.37-.37.38.38,0,0,1,.64-.27.36.36,0,0,1,.11.26.38.38,0,0,1-.38.38Zm0-.5-.09,0a.17.17,0,0,0,0,.1.11.11,0,0,0,0,.08.13.13,0,0,0,.22-.09.18.18,0,0,0,0-.09A.12.12,0,0,0,21.29,29.08Z" transform="translate(-9.14 -22)"/><path class="cls-12" d="M22.35,28.52a.36.36,0,0,1-.26-.11.37.37,0,0,1,0-.53.39.39,0,0,1,.53,0,.36.36,0,0,1,.11.26.38.38,0,0,1-.38.38Zm0-.5a.11.11,0,0,0-.08,0,.13.13,0,0,0,0,.18.12.12,0,0,0,.17,0,.13.13,0,0,0,0-.18A.12.12,0,0,0,22.35,28Z" transform="translate(-9.14 -22)"/><path class="cls-12" d="M16.52,28.09a.12.12,0,0,1-.09,0,.11.11,0,0,1,0-.17l.35-.35a.13.13,0,0,1,.18,0,.11.11,0,0,1,0,.17l-.35.35A.12.12,0,0,1,16.52,28.09Z" transform="translate(-9.14 -22)"/><path class="cls-12" d="M19.7,24.91a.12.12,0,0,1-.09,0,.11.11,0,0,1,0-.17l.36-.36a.11.11,0,0,1,.17,0,.13.13,0,0,1,0,.18l-.35.35A.11.11,0,0,1,19.7,24.91Z" transform="translate(-9.14 -22)"/><path class="cls-12" d="M22.35,27.56a.09.09,0,0,1-.08,0,.12.12,0,0,1,0-.17l.35-.36a.13.13,0,0,1,.18,0,.15.15,0,0,1,0,.18l-.36.35A.1.1,0,0,1,22.35,27.56Z" transform="translate(-9.14 -22)"/><path class="cls-12" d="M19.17,30.74a.16.16,0,0,1-.09,0,.13.13,0,0,1,0-.18l.36-.35a.12.12,0,0,1,.17.17l-.35.36A.14.14,0,0,1,19.17,30.74Z" transform="translate(-9.14 -22)"/><path class="cls-12" d="M10.14,38a1,1,0,0,1-.71-.29,1,1,0,0,1,0-1.42.51.51,0,0,1,.42-.08.71.71,0,0,0,.41,0,.13.13,0,1,1,.11.23,1,1,0,0,1-.54.05c-.1,0-.2,0-.22,0a.74.74,0,0,0,0,1.06.77.77,0,0,0,1.06,0,.52.52,0,0,0,0-.22,1,1,0,0,1,.06-.54.13.13,0,0,1,.17-.06.13.13,0,0,1,.06.17.81.81,0,0,0,0,.41.48.48,0,0,1-.08.42A1,1,0,0,1,10.14,38Z" transform="translate(-9.14 -22)"/><path class="cls-12" d="M12.26,35.89l-.07,0-1.06-.71a.13.13,0,1,1,.14-.21l1.06.71a.13.13,0,0,1,0,.17A.11.11,0,0,1,12.26,35.89Z" transform="translate(-9.14 -22)"/><path class="cls-12" d="M12.43,35.71a.09.09,0,0,1-.08,0,.11.11,0,0,1,0-.17l.35-.36a.15.15,0,0,1,.18,0,.13.13,0,0,1,0,.18l-.36.35A.1.1,0,0,1,12.43,35.71Z" transform="translate(-9.14 -22)"/><path class="cls-12" d="M11.37,35a.11.11,0,0,1-.08,0,.13.13,0,0,1,0-.18l.35-.35a.13.13,0,0,1,.18,0,.14.14,0,0,1,0,.17l-.36.36A.12.12,0,0,1,11.37,35Z" transform="translate(-9.14 -22)"/><path class="cls-12" d="M12.79,35.36l-.07,0-1.06-.71a.13.13,0,1,1,.14-.21l1.06.71a.13.13,0,0,1,0,.17A.11.11,0,0,1,12.79,35.36Z" transform="translate(-9.14 -22)"/><path class="cls-12" d="M13,35.18a.09.09,0,0,1-.08,0,.11.11,0,0,1,0-.17l.35-.36a.15.15,0,0,1,.18,0,.13.13,0,0,1,0,.18l-.36.35A.1.1,0,0,1,13,35.18Z" transform="translate(-9.14 -22)"/><path class="cls-12" d="M11.9,34.47a.11.11,0,0,1-.08,0,.13.13,0,0,1,0-.18l.35-.35a.13.13,0,0,1,.18,0,.12.12,0,0,1,0,.17l-.36.36A.12.12,0,0,1,11.9,34.47Z" transform="translate(-9.14 -22)"/><path class="cls-12" d="M13.32,34.83l-.07,0-1.06-.71a.13.13,0,1,1,.14-.21l1.06.71a.12.12,0,0,1,0,.17A.11.11,0,0,1,13.32,34.83Z" transform="translate(-9.14 -22)"/><path class="cls-12" d="M13.5,34.65a.1.1,0,0,1-.09,0,.11.11,0,0,1,0-.17l.35-.36a.13.13,0,0,1,.18.18l-.36.35A.09.09,0,0,1,13.5,34.65Z" transform="translate(-9.14 -22)"/><path class="cls-12" d="M12.43,33.94a.11.11,0,0,1-.08,0,.13.13,0,0,1,0-.18l.35-.35a.13.13,0,0,1,.18,0,.12.12,0,0,1,0,.17l-.36.36A.12.12,0,0,1,12.43,33.94Z" transform="translate(-9.14 -22)"/><path class="cls-12" d="M13.85,34.3l-.07,0-1.06-.71a.13.13,0,1,1,.14-.21l1.06.71a.12.12,0,0,1,0,.17A.11.11,0,0,1,13.85,34.3Z" transform="translate(-9.14 -22)"/><path class="cls-12" d="M14,34.12a.1.1,0,0,1-.09,0,.12.12,0,0,1,0-.17l.35-.36a.13.13,0,0,1,.18.18l-.36.35A.09.09,0,0,1,14,34.12Z" transform="translate(-9.14 -22)"/><path class="cls-12" d="M13,33.41a.11.11,0,0,1-.08,0,.13.13,0,0,1,0-.18l.35-.35a.13.13,0,0,1,.18,0,.12.12,0,0,1,0,.17l-.36.36A.12.12,0,0,1,13,33.41Z" transform="translate(-9.14 -22)"/><path class="cls-12" d="M14.38,33.77l-.07,0L13.25,33a.13.13,0,1,1,.14-.21l1.06.71a.12.12,0,0,1,0,.17A.11.11,0,0,1,14.38,33.77Z" transform="translate(-9.14 -22)"/><path class="cls-12" d="M14.56,33.59a.1.1,0,0,1-.09,0,.12.12,0,0,1,0-.17l.35-.36a.13.13,0,1,1,.18.18l-.36.35A.09.09,0,0,1,14.56,33.59Z" transform="translate(-9.14 -22)"/><path class="cls-12" d="M13.5,32.88a.12.12,0,0,1-.09,0,.13.13,0,0,1,0-.18l.35-.35a.13.13,0,0,1,.18,0,.11.11,0,0,1,0,.17l-.36.36A.11.11,0,0,1,13.5,32.88Z" transform="translate(-9.14 -22)"/><path class="cls-12" d="M14.91,33.24l-.07,0-1.06-.71a.14.14,0,0,1,0-.18.14.14,0,0,1,.18,0L15,33a.12.12,0,0,1,0,.17A.11.11,0,0,1,14.91,33.24Z" transform="translate(-9.14 -22)"/><path class="cls-12" d="M15.09,33.06A.1.1,0,0,1,15,33a.12.12,0,0,1,0-.17l.35-.36a.13.13,0,1,1,.18.18l-.36.35A.09.09,0,0,1,15.09,33.06Z" transform="translate(-9.14 -22)"/><path class="cls-12" d="M14,32.35a.12.12,0,0,1-.09,0,.13.13,0,0,1,0-.18l.35-.35a.13.13,0,0,1,.18,0,.11.11,0,0,1,0,.17l-.36.36A.11.11,0,0,1,14,32.35Z" transform="translate(-9.14 -22)"/><path class="cls-12" d="M15.44,32.71l-.07,0L14.31,32a.13.13,0,0,1,0-.18.12.12,0,0,1,.17,0l1.06.71a.12.12,0,0,1,0,.17A.11.11,0,0,1,15.44,32.71Z" transform="translate(-9.14 -22)"/><path class="cls-12" d="M15.62,32.53a.1.1,0,0,1-.09,0,.11.11,0,0,1,0-.17l.35-.36a.13.13,0,1,1,.18.18l-.35.35A.12.12,0,0,1,15.62,32.53Z" transform="translate(-9.14 -22)"/><path class="cls-12" d="M14.56,31.82a.12.12,0,0,1-.09,0,.13.13,0,0,1,0-.18l.35-.35a.13.13,0,0,1,.18,0,.11.11,0,0,1,0,.17l-.36.36A.11.11,0,0,1,14.56,31.82Z" transform="translate(-9.14 -22)"/><path class="cls-12" d="M16,32.18a.11.11,0,0,1-.07,0l-1.06-.7a.13.13,0,0,1,0-.18.12.12,0,0,1,.17,0L16,32a.12.12,0,0,1,0,.17A.11.11,0,0,1,16,32.18Z" transform="translate(-9.14 -22)"/><path class="cls-12" d="M16.15,32a.11.11,0,0,1-.09,0,.11.11,0,0,1,0-.17l.35-.36a.13.13,0,0,1,.18.18l-.35.35A.12.12,0,0,1,16.15,32Z" transform="translate(-9.14 -22)"/><path class="cls-12" d="M15.09,31.29a.12.12,0,0,1-.09,0,.13.13,0,0,1,0-.18l.35-.35a.13.13,0,0,1,.18,0,.11.11,0,0,1,0,.17l-.36.36A.11.11,0,0,1,15.09,31.29Z" transform="translate(-9.14 -22)"/><path class="cls-12" d="M16.5,31.65a.11.11,0,0,1-.07,0l-1.06-.7a.13.13,0,0,1,0-.18.12.12,0,0,1,.17,0l1.06.71a.12.12,0,0,1,0,.17A.11.11,0,0,1,16.5,31.65Z" transform="translate(-9.14 -22)"/><path class="cls-12" d="M16.68,31.47a.11.11,0,0,1-.09,0,.11.11,0,0,1,0-.17l.18-.18a.11.11,0,0,1,.17,0,.13.13,0,0,1,0,.18l-.17.17A.12.12,0,0,1,16.68,31.47Z" transform="translate(-9.14 -22)"/><path class="cls-12" d="M15.62,30.76a.1.1,0,0,1-.09,0,.11.11,0,0,1,0-.17l.35-.36a.15.15,0,0,1,.18,0,.13.13,0,0,1,0,.18l-.35.35A.12.12,0,0,1,15.62,30.76Z" transform="translate(-9.14 -22)"/><path class="cls-12" d="M10.14,37.5a.51.51,0,0,1-.36-.15.5.5,0,0,1,0-.7.13.13,0,0,1,.18,0,.12.12,0,0,1,0,.17.25.25,0,0,0,0,.36.26.26,0,0,0,.35,0,.13.13,0,0,1,.18,0,.11.11,0,0,1,0,.17A.5.5,0,0,1,10.14,37.5Z" transform="translate(-9.14 -22)"/></g></svg>